<svg xmlns="http://www.w3.org/2000/svg" version="1.1" xmlns:xlink="http://www.w3.org/1999/xlink" xmlns:svgjs="http://svgjs.dev/svgjs" width="1920" height="1080" preserveAspectRatio="none" viewBox="0 0 1920 1080"><g mask="url(&quot;#SvgjsMask1226&quot;)" fill="none"><rect width="1920" height="1080" x="0" y="0" fill="rgba(0, 0, 0, 1)"></rect><path d="M84 323L83 799" stroke-width="8" stroke="url(&quot;#SvgjsLinearGradient1227&quot;)" stroke-linecap="round" class="Down"></path><path d="M131 257L130 -504" stroke-width="6" stroke="url(&quot;#SvgjsLinearGradient1228&quot;)" stroke-linecap="round" class="Down"></path><path d="M1454 210L1453 -295" stroke-width="8" stroke="url(&quot;#SvgjsLinearGradient1229&quot;)" stroke-linecap="round" class="Up"></path><path d="M154 521L153 -11" stroke-width="8" stroke="url(&quot;#SvgjsLinearGradient1229&quot;)" stroke-linecap="round" class="Up"></path><path d="M163 491L162 57" stroke-width="8" stroke="url(&quot;#SvgjsLinearGradient1228&quot;)" stroke-linecap="round" class="Down"></path><path d="M1687 171L1686 -192" stroke-width="8" stroke="url(&quot;#SvgjsLinearGradient1228&quot;)" stroke-linecap="round" class="Down"></path><path d="M671 753L670 398" stroke-width="10" stroke="url(&quot;#SvgjsLinearGradient1229&quot;)" stroke-linecap="round" class="Up"></path><path d="M823 215L822 631" stroke-width="8" stroke="url(&quot;#SvgjsLinearGradient1230&quot;)" stroke-linecap="round" class="Down"></path><path d="M1116 761L1115 360" stroke-width="8" stroke="url(&quot;#SvgjsLinearGradient1229&quot;)" stroke-linecap="round" class="Up"></path><path d="M1465 630L1464 72" stroke-width="6" stroke="url(&quot;#SvgjsLinearGradient1231&quot;)" stroke-linecap="round" class="Up"></path><path d="M1259 1050L1258 636" stroke-width="8" stroke="url(&quot;#SvgjsLinearGradient1230&quot;)" stroke-linecap="round" class="Down"></path><path d="M1109 358L1108 996" stroke-width="8" stroke="url(&quot;#SvgjsLinearGradient1232&quot;)" stroke-linecap="round" class="Up"></path><path d="M1435 1079L1434 510" stroke-width="8" stroke="url(&quot;#SvgjsLinearGradient1229&quot;)" stroke-linecap="round" class="Up"></path><path d="M1410 130L1409 486" stroke-width="8" stroke="url(&quot;#SvgjsLinearGradient1228&quot;)" stroke-linecap="round" class="Down"></path><path d="M610 111L609 -627" stroke-width="6" stroke="url(&quot;#SvgjsLinearGradient1229&quot;)" stroke-linecap="round" class="Up"></path><path d="M1636 190L1635 -454" stroke-width="8" stroke="url(&quot;#SvgjsLinearGradient1227&quot;)" stroke-linecap="round" class="Down"></path><path d="M1480 310L1479 -471" stroke-width="10" stroke="url(&quot;#SvgjsLinearGradient1231&quot;)" stroke-linecap="round" class="Up"></path><path d="M811 292L810 883" stroke-width="6" stroke="url(&quot;#SvgjsLinearGradient1232&quot;)" stroke-linecap="round" class="Up"></path><path d="M1234 694L1233 251" stroke-width="8" stroke="url(&quot;#SvgjsLinearGradient1232&quot;)" stroke-linecap="round" class="Up"></path><path d="M1699 742L1698 4" stroke-width="8" stroke="url(&quot;#SvgjsLinearGradient1228&quot;)" stroke-linecap="round" class="Down"></path><path d="M573 409L572 -18" stroke-width="10" stroke="url(&quot;#SvgjsLinearGradient1229&quot;)" stroke-linecap="round" class="Up"></path><path d="M767 185L766 506" stroke-width="6" stroke="url(&quot;#SvgjsLinearGradient1229&quot;)" stroke-linecap="round" class="Up"></path><path d="M1756 579L1755 241" stroke-width="6" stroke="url(&quot;#SvgjsLinearGradient1227&quot;)" stroke-linecap="round" class="Down"></path><path d="M1072 537L1071 1215" stroke-width="8" stroke="url(&quot;#SvgjsLinearGradient1232&quot;)" stroke-linecap="round" class="Up"></path><path d="M220 976L219 1525" stroke-width="8" stroke="url(&quot;#SvgjsLinearGradient1231&quot;)" stroke-linecap="round" class="Up"></path><path d="M917 792L916 1120" stroke-width="10" stroke="url(&quot;#SvgjsLinearGradient1227&quot;)" stroke-linecap="round" class="Down"></path><path d="M439 646L438 -10" stroke-width="6" stroke="url(&quot;#SvgjsLinearGradient1232&quot;)" stroke-linecap="round" class="Up"></path><path d="M1526 529L1525 -181" stroke-width="6" stroke="url(&quot;#SvgjsLinearGradient1230&quot;)" stroke-linecap="round" class="Down"></path><path d="M321 1045L320 320" stroke-width="8" stroke="url(&quot;#SvgjsLinearGradient1232&quot;)" stroke-linecap="round" class="Up"></path><path d="M1528 764L1527 1412" stroke-width="10" stroke="url(&quot;#SvgjsLinearGradient1228&quot;)" stroke-linecap="round" class="Down"></path><path d="M828 492L827 180" stroke-width="8" stroke="url(&quot;#SvgjsLinearGradient1231&quot;)" stroke-linecap="round" class="Up"></path><path d="M1649 649L1648 144" stroke-width="6" stroke="url(&quot;#SvgjsLinearGradient1228&quot;)" stroke-linecap="round" class="Down"></path><path d="M1099 383L1098 -347" stroke-width="8" stroke="url(&quot;#SvgjsLinearGradient1232&quot;)" stroke-linecap="round" class="Up"></path><path d="M100 441L99 -171" stroke-width="6" stroke="url(&quot;#SvgjsLinearGradient1229&quot;)" stroke-linecap="round" class="Up"></path><path d="M1369 340L1368 -255" stroke-width="8" stroke="url(&quot;#SvgjsLinearGradient1230&quot;)" stroke-linecap="round" class="Down"></path><path d="M448 680L447 145" stroke-width="8" stroke="url(&quot;#SvgjsLinearGradient1231&quot;)" stroke-linecap="round" class="Up"></path><path d="M1233 515L1232 861" stroke-width="8" stroke="url(&quot;#SvgjsLinearGradient1229&quot;)" stroke-linecap="round" class="Up"></path><path d="M915 130L914 797" stroke-width="6" stroke="url(&quot;#SvgjsLinearGradient1231&quot;)" stroke-linecap="round" class="Up"></path><path d="M1782 992L1781 375" stroke-width="8" stroke="url(&quot;#SvgjsLinearGradient1229&quot;)" stroke-linecap="round" class="Up"></path><path d="M497 52L496 -525" stroke-width="6" stroke="url(&quot;#SvgjsLinearGradient1230&quot;)" stroke-linecap="round" class="Down"></path><path d="M1156 249L1155 -458" stroke-width="8" stroke="url(&quot;#SvgjsLinearGradient1230&quot;)" stroke-linecap="round" class="Down"></path><path d="M1669 564L1668 -27" stroke-width="8" stroke="url(&quot;#SvgjsLinearGradient1231&quot;)" stroke-linecap="round" class="Up"></path><path d="M1042 823L1041 1574" stroke-width="10" stroke="url(&quot;#SvgjsLinearGradient1232&quot;)" stroke-linecap="round" class="Up"></path><path d="M1561 617L1560 149" stroke-width="6" stroke="url(&quot;#SvgjsLinearGradient1232&quot;)" stroke-linecap="round" class="Up"></path><path d="M1556 975L1555 1337" stroke-width="6" stroke="url(&quot;#SvgjsLinearGradient1229&quot;)" stroke-linecap="round" class="Up"></path><path d="M18 980L17 1572" stroke-width="8" stroke="url(&quot;#SvgjsLinearGradient1232&quot;)" stroke-linecap="round" class="Up"></path><path d="M297 200L296 -375" stroke-width="8" stroke="url(&quot;#SvgjsLinearGradient1227&quot;)" stroke-linecap="round" class="Down"></path><path d="M1003 231L1002 -351" stroke-width="6" stroke="url(&quot;#SvgjsLinearGradient1231&quot;)" stroke-linecap="round" class="Up"></path></g><defs><mask id="SvgjsMask1226"><rect width="1920" height="1080" fill="#ffffff"></rect></mask><linearGradient x1="0%" y1="0%" x2="0%" y2="100%" id="SvgjsLinearGradient1227"><stop stop-color="rgba(122, 123, 126, 0)" offset="0"></stop><stop stop-color="rgba(122, 123, 126, 1)" offset="1"></stop></linearGradient><linearGradient x1="0%" y1="0%" x2="0%" y2="100%" id="SvgjsLinearGradient1228"><stop stop-color="rgba(58, 58, 61, 0)" offset="0"></stop><stop stop-color="rgba(58, 58, 61, 1)" offset="1"></stop></linearGradient><linearGradient x1="0%" y1="100%" x2="0%" y2="0%" id="SvgjsLinearGradient1229"><stop stop-color="rgba(122, 123, 126, 0)" offset="0"></stop><stop stop-color="rgba(122, 123, 126, 1)" offset="1"></stop></linearGradient><linearGradient x1="0%" y1="0%" x2="0%" y2="100%" id="SvgjsLinearGradient1230"><stop stop-color="rgba(51, 51, 55, 0)" offset="0"></stop><stop stop-color="rgba(51, 51, 55, 1)" offset="1"></stop></linearGradient><linearGradient x1="0%" y1="100%" x2="0%" y2="0%" id="SvgjsLinearGradient1231"><stop stop-color="rgba(51, 51, 55, 0)" offset="0"></stop><stop stop-color="rgba(51, 51, 55, 1)" offset="1"></stop></linearGradient><linearGradient x1="0%" y1="100%" x2="0%" y2="0%" id="SvgjsLinearGradient1232"><stop stop-color="rgba(58, 58, 61, 0)" offset="0"></stop><stop stop-color="rgba(58, 58, 61, 1)" offset="1"></stop></linearGradient></defs></svg>