<svg xmlns="http://www.w3.org/2000/svg" version="1.1" xmlns:xlink="http://www.w3.org/1999/xlink" xmlns:svgjs="http://svgjs.dev/svgjs" width="1080" height="1980" preserveAspectRatio="none" viewBox="0 0 1080 1980"><g mask="url(&quot;#SvgjsMask1163&quot;)" fill="none"><rect width="1080" height="1980" x="0" y="0" fill="rgba(0, 0, 0, 1)"></rect><path d="M570 1456L569 893" stroke-width="8" stroke="url(&quot;#SvgjsLinearGradient1164&quot;)" stroke-linecap="round" class="Down"></path><path d="M104 1247L103 1957" stroke-width="8" stroke="url(&quot;#SvgjsLinearGradient1165&quot;)" stroke-linecap="round" class="Up"></path><path d="M989 958L988 2212" stroke-width="8" stroke="url(&quot;#SvgjsLinearGradient1165&quot;)" stroke-linecap="round" class="Up"></path><path d="M52 392L51 1810" stroke-width="10" stroke="url(&quot;#SvgjsLinearGradient1166&quot;)" stroke-linecap="round" class="Down"></path><path d="M751 113L750 963" stroke-width="8" stroke="url(&quot;#SvgjsLinearGradient1165&quot;)" stroke-linecap="round" class="Up"></path><path d="M754 667L753 -201" stroke-width="10" stroke="url(&quot;#SvgjsLinearGradient1164&quot;)" stroke-linecap="round" class="Down"></path><path d="M199 1545L198 542" stroke-width="10" stroke="url(&quot;#SvgjsLinearGradient1167&quot;)" stroke-linecap="round" class="Up"></path><path d="M775 1509L774 2021" stroke-width="10" stroke="url(&quot;#SvgjsLinearGradient1168&quot;)" stroke-linecap="round" class="Up"></path><path d="M594 1844L593 3026" stroke-width="6" stroke="url(&quot;#SvgjsLinearGradient1165&quot;)" stroke-linecap="round" class="Up"></path><path d="M1029 227L1028 -791" stroke-width="8" stroke="url(&quot;#SvgjsLinearGradient1169&quot;)" stroke-linecap="round" class="Down"></path><path d="M648 1333L647 759" stroke-width="10" stroke="url(&quot;#SvgjsLinearGradient1164&quot;)" stroke-linecap="round" class="Down"></path><path d="M42 925L41 2147" stroke-width="8" stroke="url(&quot;#SvgjsLinearGradient1164&quot;)" stroke-linecap="round" class="Down"></path><path d="M907 120L906 -1321" stroke-width="10" stroke="url(&quot;#SvgjsLinearGradient1169&quot;)" stroke-linecap="round" class="Down"></path><path d="M437 845L436 1654" stroke-width="8" stroke="url(&quot;#SvgjsLinearGradient1164&quot;)" stroke-linecap="round" class="Down"></path><path d="M1048 1083L1047 1737" stroke-width="10" stroke="url(&quot;#SvgjsLinearGradient1164&quot;)" stroke-linecap="round" class="Down"></path><path d="M836 176L835 -787" stroke-width="10" stroke="url(&quot;#SvgjsLinearGradient1169&quot;)" stroke-linecap="round" class="Down"></path><path d="M285 1414L284 2031" stroke-width="10" stroke="url(&quot;#SvgjsLinearGradient1168&quot;)" stroke-linecap="round" class="Up"></path><path d="M376 446L375 -913" stroke-width="8" stroke="url(&quot;#SvgjsLinearGradient1166&quot;)" stroke-linecap="round" class="Down"></path><path d="M54 562L53 1734" stroke-width="10" stroke="url(&quot;#SvgjsLinearGradient1164&quot;)" stroke-linecap="round" class="Down"></path><path d="M468 494L467 1011" stroke-width="6" stroke="url(&quot;#SvgjsLinearGradient1164&quot;)" stroke-linecap="round" class="Down"></path><path d="M166 659L165 1198" stroke-width="8" stroke="url(&quot;#SvgjsLinearGradient1168&quot;)" stroke-linecap="round" class="Up"></path><path d="M547 576L546 -298" stroke-width="6" stroke="url(&quot;#SvgjsLinearGradient1165&quot;)" stroke-linecap="round" class="Up"></path><path d="M1079 1620L1078 2316" stroke-width="10" stroke="url(&quot;#SvgjsLinearGradient1166&quot;)" stroke-linecap="round" class="Down"></path><path d="M798 126L797 1161" stroke-width="8" stroke="url(&quot;#SvgjsLinearGradient1164&quot;)" stroke-linecap="round" class="Down"></path><path d="M326 395L325 -737" stroke-width="8" stroke="url(&quot;#SvgjsLinearGradient1168&quot;)" stroke-linecap="round" class="Up"></path><path d="M622 1595L621 430" stroke-width="6" stroke="url(&quot;#SvgjsLinearGradient1165&quot;)" stroke-linecap="round" class="Up"></path><path d="M229 540L228 2008" stroke-width="8" stroke="url(&quot;#SvgjsLinearGradient1165&quot;)" stroke-linecap="round" class="Up"></path></g><defs><mask id="SvgjsMask1163"><rect width="1080" height="1980" fill="#ffffff"></rect></mask><linearGradient x1="0%" y1="0%" x2="0%" y2="100%" id="SvgjsLinearGradient1164"><stop stop-color="rgba(58, 58, 61, 0)" offset="0"></stop><stop stop-color="rgba(58, 58, 61, 1)" offset="1"></stop></linearGradient><linearGradient x1="0%" y1="100%" x2="0%" y2="0%" id="SvgjsLinearGradient1165"><stop stop-color="rgba(58, 58, 61, 0)" offset="0"></stop><stop stop-color="rgba(58, 58, 61, 1)" offset="1"></stop></linearGradient><linearGradient x1="0%" y1="0%" x2="0%" y2="100%" id="SvgjsLinearGradient1166"><stop stop-color="rgba(122, 123, 126, 0)" offset="0"></stop><stop stop-color="rgba(122, 123, 126, 1)" offset="1"></stop></linearGradient><linearGradient x1="0%" y1="100%" x2="0%" y2="0%" id="SvgjsLinearGradient1167"><stop stop-color="rgba(51, 51, 55, 0)" offset="0"></stop><stop stop-color="rgba(51, 51, 55, 1)" offset="1"></stop></linearGradient><linearGradient x1="0%" y1="100%" x2="0%" y2="0%" id="SvgjsLinearGradient1168"><stop stop-color="rgba(122, 123, 126, 0)" offset="0"></stop><stop stop-color="rgba(122, 123, 126, 1)" offset="1"></stop></linearGradient><linearGradient x1="0%" y1="0%" x2="0%" y2="100%" id="SvgjsLinearGradient1169"><stop stop-color="rgba(51, 51, 55, 0)" offset="0"></stop><stop stop-color="rgba(51, 51, 55, 1)" offset="1"></stop></linearGradient></defs></svg>